<svg xmlns="http://www.w3.org/2000/svg" viewBox="0 0 24 24"><circle fill="currentColor" cx="12" cy="12" r="1.6"/><g fill="currentColor"><g><rect x="11.1" y="2" width="1.8" height="20" rx="0.4"/><polygon points="12,6.2 9.4,4 9.4,5.6 12,7.8"/><polygon points="12,6.2 14.6,4 14.6,5.6 12,7.8"/><polygon points="12,17.8 9.4,20 9.4,18.4 12,16.2"/><polygon points="12,17.8 14.6,20 14.6,18.4 12,16.2"/></g><g transform="rotate(60 12 12)"><rect x="11.1" y="2" width="1.8" height="20" rx="0.4"/><polygon points="12,6.2 9.4,4 9.4,5.6 12,7.8"/><polygon points="12,6.2 14.6,4 14.6,5.6 12,7.8"/><polygon points="12,17.8 9.4,20 9.4,18.4 12,16.2"/><polygon points="12,17.8 14.6,20 14.6,18.4 12,16.2"/></g><g transform="rotate(120 12 12)"><rect x="11.1" y="2" width="1.8" height="20" rx="0.4"/><polygon points="12,6.2 9.4,4 9.4,5.6 12,7.8"/><polygon points="12,6.2 14.6,4 14.6,5.6 12,7.8"/><polygon points="12,17.8 9.4,20 9.4,18.4 12,16.2"/><polygon points="12,17.8 14.6,20 14.6,18.4 12,16.2"/></g></g></svg>
